<?xml version="1.0" standalone="no"?>
<!DOCTYPE svg PUBLIC "-//W3C//DTD SVG 20010904//EN"
 "http://www.w3.org/TR/2001/REC-SVG-20010904/DTD/svg10.dtd">
<svg version="1.0" xmlns="http://www.w3.org/2000/svg"
 width="1280.000000pt" height="1280.000000pt" viewBox="0 0 1280.000000 1280.000000"
 preserveAspectRatio="xMidYMid meet">
<metadata>
Created by potrace 1.15, written by Peter Selinger 2001-2017
</metadata>
<g transform="translate(0.000000,1280.000000) scale(0.100000,-0.100000)"
fill="#000000" stroke="none">
<path d="M410 9165 l0 -475 -205 0 -205 0 0 -130 0 -130 6400 0 6400 0 0 130
0 130 -220 0 -220 0 0 473 1 472 -458 0 -458 0 -3 -472 -2 -473 -458 0 -457 0
0 472 0 473 -457 3 -458 2 0 -475 0 -475 -460 0 -460 0 -2 473 -3 472 -457 3
-458 2 0 -475 0 -475 -460 0 -460 0 -2 473 -3 472 -457 3 -458 2 0 -475 0
-475 -460 0 -460 0 0 475 0 475 -460 0 -460 0 0 -475 0 -475 -460 0 -460 0 0
475 0 475 -460 0 -460 0 0 -475 0 -475 -460 0 -460 0 0 475 0 475 -460 0 -460
0 0 -475z"/>
<path d="M0 8040 l0 -130 205 0 205 0 0 -1315 0 -1315 -205 0 -205 0 0 -130 0
-130 6400 0 6400 0 0 130 0 130 -217 2 -218 3 0 1310 0 1310 218 3 217 2 0
130 0 130 -6400 0 -6400 0 0 -130z m2250 -1445 l0 -1315 -460 0 -460 0 0 1315
0 1315 460 0 460 0 0 -1315z m1838 3 l-3 -1313 -457 -3 -458 -2 0 1315 0 1315
460 0 460 0 -2 -1312z m1837 -3 l0 -1310 -457 -3 -458 -2 0 1315 0 1315 458
-2 457 -3 0 -1310z m1840 0 l0 -1310 -457 -3 -458 -2 0 1315 0 1315 458 -2
457 -3 0 -1310z m1840 0 l0 -1310 -457 -3 -458 -2 0 1315 0 1315 458 -2 457
-3 0 -1310z m1835 0 l0 -1315 -455 2 -455 3 0 1308 c0 719 0 1309 0 1312 0 3
205 5 455 5 l455 0 0 -1315z"/>
<path d="M0 4640 l0 -130 203 -2 202 -3 3 -532 2 -533 460 0 460 0 0 535 0
535 458 -2 457 -3 3 -532 2 -533 460 0 460 0 0 535 0 535 458 -2 457 -3 3
-532 2 -533 460 0 460 0 0 535 0 535 458 -2 457 -3 3 -532 2 -533 460 0 460 0
0 535 0 535 458 -2 457 -3 3 -532 2 -533 460 0 460 0 0 535 0 535 458 -2 457
-3 3 -532 2 -533 460 0 460 0 0 533 -1 532 456 3 455 2 0 -535 0 -535 463 0
462 0 0 532 0 533 218 3 217 2 0 130 0 130 -6400 0 -6400 0 0 -130z"/>
</g>
</svg>
